<svg xmlns="http://www.w3.org/2000/svg" viewBox="0 0 1200 600"><defs><style>.cls-1{fill:#59b224;}.cls-2{fill:#fefefe;}</style></defs><g id="Layer_2" data-name="Layer 2"><g id="Layer_2-2" data-name="Layer 2"><g id="BRC"><rect class="cls-1" width="1200" height="600" rx="40"/><g id="certificated"><path class="cls-2" d="M716.94,456c8.4,0,16.68-.39,24.91.12,7.25.46,12.21,5.75,12.64,13.2.25,4.3-.16,8.42-3,11.76-1.47,1.74-3.63,2.9-5.5,4.29a8.26,8.26,0,0,1-1.38.62c1.3.44,2.44.8,3.56,1.22,3.43,1.27,4.88,4.06,5.4,7.41a43,43,0,0,1,.43,5.9c.05,4.95-.28,9.95,2.47,14.65-3.91,0-7.55,0-11.19,0a1.9,1.9,0,0,1-1.45-1,22.65,22.65,0,0,1-1-4.74c-.35-4.76-.5-9.53-.87-14.29-.27-3.36-2.86-4.86-5.81-5.15-2-.19-4,0-6,0h-1.76V515H716.94Zm11.52,26.07c2.37,0,4.57.1,6.76,0,4.08-.23,6.59-2.15,7.47-5.89a20.46,20.46,0,0,0,.17-4.51c0-3.49-1.68-6.18-5-6.85-3-.62-6.19-.49-9.38-.7Z"/><path class="cls-2" d="M1051.69,456c2,0,3.86.06,5.71,0a62.4,62.4,0,0,1,6.53-.35,111.36,111.36,0,0,1,15,1.56c5.07,1.06,7.65,5.21,9.48,9.8,1.59,4,1.91,8.16,2,12.35s.24,8.43,0,12.62c-.37,5.74-1.13,11.45-4.48,16.4a14.82,14.82,0,0,1-12,6.71c-7.35.35-14.74.09-22.26.09Zm11.52,50.9c2.49,0,4.77.14,7,0,3-.24,5.64-1.3,6.66-4.43.82-2.54,1.81-5.18,1.87-7.79.14-7.05,0-14.14-.42-21.18-.22-3.32-1.31-6.78-4.89-8.3-3.29-1.4-6.78-.82-10.24-.85Z"/><path class="cls-2" d="M936,515.13H924.15c1.59-6.11,3.13-12.14,4.72-18.16,2.25-8.51,4.54-17,6.81-25.53,1.24-4.61,2.51-9.21,3.69-13.83a1.77,1.77,0,0,1,2.08-1.62c3.79.09,7.58.08,11.37,0,1.19,0,1.63.47,1.91,1.55,4.07,15.4,8.19,30.79,12.26,46.19,1,3.77,1.91,7.56,2.89,11.45-3.6,0-7.11,0-10.62,0-1.22,0-1.45-.68-1.65-1.61-.67-3.15-1.31-6.32-2.11-9.45a2.17,2.17,0,0,0-1.53-1.32c-5-.1-10.05-.06-15.2-.06C937.85,506.93,936.94,511,936,515.13Zm11.32-49.31-.68,0c-1.94,9.07-3.88,18.15-5.84,27.34h12.37Z"/><path class="cls-2" d="M708,489.1h-19.6c-1,5.52-.42,11-.42,16.79h22.14V515H676.38v-58.9h32.87v8.91H688V480h20Z"/><path class="cls-2" d="M1022.34,480h19.95v9h-20v16.72h22.15V515h-33.71v-58.9h32.8v8.92h-21.17Z"/><path class="cls-2" d="M921.77,475.37H910.39a63.76,63.76,0,0,0-1.24-7.48c-1.26-4.41-5.46-6.07-9.61-4.1-2.24,1.07-2.87,3.26-3.4,5.28a40.1,40.1,0,0,0-1,7.44c-.24,3.41-.47,6.84-.4,10.26.12,5.69.24,11.39,1.84,17a6.36,6.36,0,0,0,6.06,4.45c3.31-.06,5.75-1.45,6.49-4.37a49.14,49.14,0,0,0,1.25-8.18c.21-2.77.05-2.78,2.9-2.78H922c.07,7.6-.44,14.86-6.74,20.12a16.42,16.42,0,0,1-9.16,3.42,26.57,26.57,0,0,1-11.28-1.33,14.71,14.71,0,0,1-8.74-8.47c-2-4.46-2.45-9.25-2.56-14.09-.08-3.07-.58-6.17-.34-9.22.44-5.38.73-10.89,2.11-16.07,2.39-8.94,8-11.88,17-12.41a24,24,0,0,1,9.57,1.47c5.9,2.09,8.14,6.76,9.29,12.26A58.56,58.56,0,0,1,921.77,475.37Z"/><path class="cls-2" d="M668.54,475.43H657.18c-.41-2.54-.76-5.07-1.22-7.56-.75-4-4.19-5-7.11-4.81s-5.11,2-5.67,5.37c-.6,3.66-.92,7.38-1.26,11.09a45.66,45.66,0,0,0-.38,7.56,154.11,154.11,0,0,0,1.68,15.77c1.08,6.24,7.16,6.32,10.88,3.9a4.77,4.77,0,0,0,1.79-2.84,81.63,81.63,0,0,0,1.28-8.79c.14-1.54.45-2.38,2.24-2.3,3,.12,6.05,0,9.35,0,.18,7.67-.37,15.07-6.88,20.16a17.59,17.59,0,0,1-8.34,3.24c-5.13.66-10.4.33-14.89-2.74a17.33,17.33,0,0,1-7.48-13.16A135.4,135.4,0,0,1,630,484.68a85.23,85.23,0,0,1,1.65-16.18c1.54-7.39,6-12.15,14-13.35,5.63-.85,11-.46,15.87,2.56,4,2.45,5.56,6.51,6.39,10.84C668.34,470.73,668.33,473,668.54,475.43Z"/><path class="cls-2" d="M835.63,465v15h20.09v9.05H835.59v26H824.12V456.16H857V465Z"/><path class="cls-2" d="M771.89,465.08h-13.2v-8.9h37.82V465h-13v50H771.89Z"/><path class="cls-2" d="M991.62,515.1H980V465.18H967.28v-9h37.39V465h-13Z"/><path class="cls-2" d="M802.93,515V456.15h11.41V515Z"/><path class="cls-2" d="M874.69,515.15H863.55v-59h11.14Z"/></g><g id="brc-2" data-name="brc"><path class="cls-2" d="M631.23,256.17V86.93h2.19c23.79,0,47.58-.2,71.37.09,11.34.14,22.5,1.85,32.76,7.34a34.67,34.67,0,0,1,18.08,23,40.61,40.61,0,0,1-6.11,33.9c-5,7.45-12.22,12-20.66,14.65l-2.31.69,6.84,1.8c13.79,3.71,23.09,12.22,27.67,25.8,2.34,6.92,2.42,14,1.72,21.18A43.22,43.22,0,0,1,754.46,237,38.7,38.7,0,0,1,743,247.19c-7.51,4.58-15.83,6.79-24.4,8.08a87.68,87.68,0,0,1-12.65.86c-24,.08-48,0-72,0Zm15.71-13.25h2.7q27.92,0,55.83,0c2.11,0,4.22-.31,6.33-.38a47.89,47.89,0,0,0,16.91-3.79c7.89-3.3,13.71-8.76,16.67-17a38.22,38.22,0,0,0,2-17.35,41.6,41.6,0,0,0-1.54-7.91c-2.46-7.84-8-13-15.19-16.53-8-3.94-16.7-5.12-25.43-5.24-18.75-.26-37.5-.08-56.25-.08-.66,0-1.33.06-2,.1ZM647,100.17v61.24h2.41q27.21,0,54.41,0a51.24,51.24,0,0,0,19.1-3.33c5.49-2.19,10.4-5.27,13.72-10.34,4.3-6.57,5.32-13.78,4.16-21.44-1.73-11.54-7.82-19.4-19-23.27a55.91,55.91,0,0,0-18-2.78c-18.21-.19-36.41-.07-54.62-.07Z"/><path class="cls-2" d="M884.94,174.49c3.06.82,5.65,1.46,8.2,2.23C903.85,180,910,187.48,912.9,198a72,72,0,0,1,2.54,17.66c.12,5.4.36,10.8.84,16.18.71,8,1.89,16,5.77,23.23.15.27.26.57.51,1.12-5.53,0-10.82,0-16.1,0a1.75,1.75,0,0,1-1.28-1c-.93-3.15-2.12-6.3-2.52-9.54-.7-5.81-.82-11.69-1.35-17.52-.58-6.36-1-12.74-2.12-19-1.35-7.92-3.67-15.59-9.83-21.33-4-3.73-8.87-6.28-14.33-6.38-19-.36-38-.37-57-.5-4.12,0-8.25,0-12.61,0v75.19H789.79V87c.59,0,1.26-.09,1.92-.09,25.79,0,51.58-.21,77.37.09,11.62.14,22.84,2.65,32.65,9.43a36.1,36.1,0,0,1,15.7,24.15,57.82,57.82,0,0,1,1.2,12.34c-.53,12.9-4.81,24.31-14.93,32.87-4.85,4.11-10.73,6.38-16.83,8C886.36,174,885.87,174.17,884.94,174.49Zm-79.48-74.32v67.45H808c19.51,0,39,0,58.52,0a40.63,40.63,0,0,0,13.18-2.1c14.14-4.74,22.13-14.72,23.25-29.12a37,37,0,0,0-2.51-16.79A27.66,27.66,0,0,0,885.64,104c-6.68-2.93-13.8-3.78-21-3.78H805.46Z"/><path class="cls-2" d="M1088.21,137.82c-4.89,0-9.57.05-14.26,0a2.23,2.23,0,0,1-1.64-1.26,52.05,52.05,0,0,0-10.21-20.92A48.83,48.83,0,0,0,1042.34,101c-9.18-3.88-18.85-4.84-28.61-4-11,.88-21.34,4.13-30.3,10.82a61.72,61.72,0,0,0-16.64,19A79.34,79.34,0,0,0,957.34,155a110.26,110.26,0,0,0-1.25,21.24c.62,13.87,3.44,27.36,10.36,39.64a61,61,0,0,0,17.64,20,55.64,55.64,0,0,0,26.2,9.88,72.44,72.44,0,0,0,12,.78c9.36-.41,18.24-2.7,26.25-7.88,10.92-7.06,18-17,22.43-29.09a65.82,65.82,0,0,0,3.77-15.89c.06-.6.84-1.59,1.3-1.6,4.74-.12,9.48-.08,14.64-.08-.67,4-1.13,7.73-2,11.39a84,84,0,0,1-7.41,20.47,77.27,77.27,0,0,1-9.6,14,60.63,60.63,0,0,1-18.48,14.44,57.39,57.39,0,0,1-19.34,6.22,108.32,108.32,0,0,1-17.32,1.21c-16-.56-30.92-5.06-43.83-14.83-13.78-10.42-22.48-24.41-27.55-40.77a89.54,89.54,0,0,1-4.15-20.8c-.28-4.5-.89-9-.76-13.49.4-14.17,2.8-28,8.69-41a83.11,83.11,0,0,1,13.82-21.37c10.14-11.35,22.78-18.24,37.4-21.87a83.83,83.83,0,0,1,26.25-1.94,73.43,73.43,0,0,1,26.28,6.85,64.83,64.83,0,0,1,19.53,13.64,56.3,56.3,0,0,1,15.28,29.85C1087.75,135.27,1088,136.47,1088.21,137.82Z"/></g><g id="food"><path class="cls-2" d="M985.44,437.33V277.68H1037c8,0,15.84.91,23.36,3.73A37.39,37.39,0,0,1,1080,297.68a64,64,0,0,1,8.35,26c.74,6.69,1.31,13.42,1.64,20.14.35,7.07.58,14.16.38,21.23a174.48,174.48,0,0,1-1.63,19.1A143.16,143.16,0,0,1,1085,403.8c-4.16,14.51-12.57,25.5-27.5,30.41a56.33,56.33,0,0,1-17.38,2.78l-53.5.41C986.24,437.4,985.91,437.36,985.44,437.33Zm31.38-23.66c2.71.19,5.27.51,7.83.52,3.28,0,6.56-.22,9.84-.38,12.35-.6,17.66-6.37,20.72-16.85,2.77-9.46,3.12-19.29,3.3-29.06.17-9.2-.26-18.41-.33-27.62a85.43,85.43,0,0,0-2.5-20.77c-1.56-6.09-4.44-11.37-9.78-14.95-4.45-3-9.65-3.43-14.77-3.64-4.58-.18-9.18.23-13.76.39a1.78,1.78,0,0,0-.55.25Z"/><path class="cls-2" d="M839.27,358.08v2.07a218.44,218.44,0,0,1-1.6,29.26,97.33,97.33,0,0,1-4.58,21.11,45.56,45.56,0,0,1-10.18,16.91c-6.38,6.45-14.34,9.9-23.17,11.67a80.42,80.42,0,0,1-20.23,1.13c-10.33-.56-20.14-3.11-28.57-9.53a38,38,0,0,1-9.72-11.38,67.4,67.4,0,0,1-7.31-20.24,112.05,112.05,0,0,1-1.77-13.7c-.44-5.31-.69-10.64-.84-16-.23-8-.69-16.1-.34-24.12.51-11.85,1.2-23.72,4.44-35.25,2.11-7.48,5.09-14.48,10.22-20.48,6.67-7.77,15.28-11.66,25.13-13.6a81.59,81.59,0,0,1,20.85-1.08c9.81.6,19.17,3.08,27.24,9.12,6.33,4.74,10.45,11.13,13.39,18.35a77.64,77.64,0,0,1,5.38,23c.47,5.57,1,11.14,1.21,16.72.2,5.34,0,10.7,0,16.05Zm-53.81-60.26a55.16,55.16,0,0,0-5.89.6,14.64,14.64,0,0,0-8.11,4.3c-3.07,3.37-4.71,7.57-5.78,11.9-2.19,8.82-2.79,17.89-2.86,26.9-.1,15.85-.77,31.73,1.09,47.55.65,5.53,1.37,11,3.37,16.21,1.66,4.35,4.16,8.07,8.52,10.1a24,24,0,0,0,13,1.64c4-.47,8.07-1.87,10.38-5.31a41,41,0,0,0,5.22-11.07c2.48-8.46,2.71-17.32,2.9-26.05.27-12.31-.23-24.63-.29-36.95a111.76,111.76,0,0,0-2.1-21.29c-1-4.83-2.61-9.45-5.85-13.18C795.56,299.13,790.73,297.82,785.46,297.82Z"/><path class="cls-2" d="M963.82,356.87c0,4.62.19,9.25,0,13.86-.41,8.48-.81,16.95-2.35,25.36a81.18,81.18,0,0,1-6.76,21.5,38.22,38.22,0,0,1-15.54,16.22,41.56,41.56,0,0,1-18,5.63c-5.79.45-11.64,1.08-17.41.74-8.94-.52-17.69-2.48-25.35-7.45a39.15,39.15,0,0,1-12.76-13.81c-4.31-7.63-6.57-15.92-7.73-24.53-.71-5.31-1.2-10.66-1.66-16-.27-3.13-.31-6.28-.43-9.43-.15-4-.4-8.08-.39-12.12,0-5.76,0-11.54.43-17.28.79-12,1.94-24,6.1-35.47,5.25-14.49,15.2-23.73,30.07-27.52,8.15-2.07,16.54-2.21,24.86-1.69a53.68,53.68,0,0,1,20.43,5.3c7.78,3.81,13.3,9.9,17.4,17.41a62.58,62.58,0,0,1,6.53,20.71c1,6.7,1.7,13.48,2.08,20.25.34,6.09.07,12.21.07,18.32Zm-31.5-7.52c-.41-7.46-.78-14.44-1.19-21.4a59.69,59.69,0,0,0-3.72-18.59c-1.82-4.57-4.63-8.22-9.35-10.11-4.26-1.71-8.62-1.5-13-.9-6.41.87-10.3,4.89-12.71,10.43-2.75,6.32-3.48,13.17-4.13,19.94-.59,6-.82,12.15-.85,18.23-.05,8.52.16,17,.39,25.56.14,5.33.49,10.65.81,16a56.33,56.33,0,0,0,3.34,16.6c1.46,3.87,3.6,7.28,7.25,9.52,4.21,2.59,8.9,2.89,13.58,2.43a21.36,21.36,0,0,0,7.24-2.22c5.05-2.54,7.16-7.38,8.69-12.44,2.29-7.57,2.75-15.45,3.29-23.28.37-5.4.33-10.83.4-16.24C932.37,358.19,932.32,353.53,932.32,349.35Z"/><path class="cls-2" d="M630.46,277.77h88.71v25.88H662.31v38.09H715.8v26.09H662.26v69.4h-31.8Z"/></g><path id="check" class="cls-2" d="M587.42,90.4c-14.8,10.56-29.67,21-44.38,31.7q-21,15.24-41.66,30.87c-8.84,6.72-17.44,13.76-26,20.83-6.52,5.38-12.86,11-19.17,16.59-7.6,6.77-15.19,13.57-22.59,20.55-9.8,9.25-19.61,18.5-29.06,28.09q-11.78,12-22.71,24.77c-9.64,11.26-19.11,22.68-28.22,34.37Q338.17,318,323.52,338.51c-9.55,13.36-18.89,26.89-27.77,40.69-10.37,16.11-20.29,32.52-30.15,49-7.54,12.56-14.81,25.3-22,38.09-5.94,10.6-11.57,21.38-17.32,32.09-1.7,3.18-3.34,6.39-5,9.57-.34.63-.8,1.19-1.41,2.09-2.49-5.26-4.71-10.2-7.12-15-5-10-9.73-20.09-15.16-29.82-6.73-12.06-13.86-23.91-21.18-35.62-5.72-9.16-11.83-18.1-18.08-26.91-7-9.92-14.34-19.65-21.67-29.35Q127.76,361.5,118.5,350c-4.55-5.66-9.34-11.12-14-16.67-5.43-6.45-10.84-12.92-16.3-19.35-3.22-3.81-6.5-7.56-9.76-11.33l-13.85-16a39.21,39.21,0,0,1,5,.72c12.93,3.68,26,7,38.7,11.27,10.6,3.54,21,7.91,31.21,12.39A230.16,230.16,0,0,1,178,332.26c10.06,6.9,18.89,15.13,27.3,23.87,1.33,1.39,2.44,3,3.69,4.54,4-3.86,7.92-7.7,11.86-11.58.65-.64,1.11-1.49,1.76-2.14,14.51-14.53,29-29.1,43.58-43.55,6.72-6.65,13.64-13.09,20.55-19.54,5.51-5.15,11.07-10.26,16.77-15.21,7.7-6.7,15.43-13.38,23.38-19.78,12.84-10.34,25.57-20.84,38.88-30.54,16.86-12.27,34.11-24,51.49-35.57,12.75-8.47,25.92-16.33,39.06-24.21,9.69-5.81,19.55-11.35,29.48-16.77q22.74-12.4,45.69-24.46c11.46-6,23-11.77,34.63-17.51C573,96.4,580.06,93.26,587,90Z"/></g></g></g></svg>