<svg xmlns="http://www.w3.org/2000/svg" viewBox="0 0 400 600"><defs><style>.cls-1{fill:#00adef;}.cls-2{fill:#fefefe;}.cls-3{fill:#fff;}</style></defs><g id="Layer_2" data-name="Layer 2"><g id="Layer_3" data-name="Layer 3"><g id="BRC"><rect id="bg" class="cls-1" width="400" height="600" rx="72.04"/><g id="certificated"><path class="cls-2" d="M99.14,537.5c5.85,0,11.61-.28,17.34.08,5,.31,8.5,4,8.8,9.18.17,3-.11,5.86-2.08,8.19a21.25,21.25,0,0,1-3.82,3,5,5,0,0,1-1,.44c.91.31,1.71.56,2.48.85,2.39.89,3.4,2.82,3.76,5.16a28.07,28.07,0,0,1,.3,4.1c0,3.45-.19,6.93,1.73,10.2-2.73,0-5.26,0-7.79,0a1.34,1.34,0,0,1-1-.68,15.45,15.45,0,0,1-.66-3.3c-.25-3.31-.35-6.63-.61-9.94-.19-2.34-2-3.39-4-3.59-1.37-.13-2.78,0-4.17,0h-1.22v17.46h-8Zm8,18.14c1.65,0,3.18.07,4.7,0,2.85-.16,4.59-1.49,5.21-4.09a13.66,13.66,0,0,0,.11-3.14c0-2.43-1.16-4.3-3.49-4.78a51.44,51.44,0,0,0-6.53-.48Z"/><path class="cls-2" d="M332.17,537.49c1.39,0,2.69,0,4,0,1.52-.05,3.05-.34,4.55-.24a75.26,75.26,0,0,1,10.42,1.09c3.53.74,5.33,3.62,6.6,6.82a24.76,24.76,0,0,1,1.42,8.6c.08,2.93.16,5.86,0,8.78-.26,4-.79,8-3.11,11.42a10.33,10.33,0,0,1-8.33,4.67c-5.12.24-10.26.06-15.5.06Zm8,35.43c1.73,0,3.32.1,4.89,0,2.07-.17,3.92-.91,4.63-3.09a19.39,19.39,0,0,0,1.3-5.42c.1-4.91,0-9.84-.29-14.74-.15-2.32-.91-4.72-3.4-5.78-2.29-1-4.72-.57-7.13-.59Z"/><path class="cls-2" d="M251.66,578.64h-8.28c1.11-4.26,2.18-8.45,3.29-12.64q2.36-8.89,4.74-17.77c.86-3.21,1.75-6.41,2.57-9.63a1.23,1.23,0,0,1,1.45-1.13c2.63.06,5.27,0,7.91,0,.84,0,1.14.32,1.34,1.07q4.24,16.1,8.53,32.16c.7,2.63,1.33,5.27,2,8-2.51,0-5,0-7.39,0-.85,0-1-.47-1.15-1.12-.47-2.19-.92-4.4-1.47-6.58a1.49,1.49,0,0,0-1.06-.91c-3.5-.07-7-.05-10.59-.05Zm7.88-34.33h-.47c-1.35,6.32-2.7,12.64-4.06,19h8.61C262.24,556.92,260.89,550.62,259.54,544.31Z"/><path class="cls-2" d="M92.88,560.52H79.24c-.68,3.84-.29,7.63-.29,11.69H94.36v6.37H70.91v-41H93.79v6.2H79v10.38H92.88Z"/><path class="cls-2" d="M311.74,554.21h13.89v6.3H311.69v11.64h15.42v6.43H303.64v-41h22.84v6.21H311.74Z"/><path class="cls-2" d="M241.73,551h-7.92a46.23,46.23,0,0,0-.86-5.2c-.88-3.07-3.81-4.23-6.7-2.86-1.56.75-2,2.27-2.36,3.67a27.32,27.32,0,0,0-.68,5.19c-.17,2.37-.33,4.76-.28,7.14a45.31,45.31,0,0,0,1.28,11.81,4.42,4.42,0,0,0,4.22,3.09c2.3,0,4-1,4.51-3a33.12,33.12,0,0,0,.87-5.7c.15-1.92,0-1.93,2-1.93h6.07c0,5.29-.3,10.35-4.69,14a11.53,11.53,0,0,1-6.38,2.38,18.34,18.34,0,0,1-7.84-.93,10.24,10.24,0,0,1-6.09-5.89,25.44,25.44,0,0,1-1.79-9.81,62.81,62.81,0,0,1-.23-6.42,64.19,64.19,0,0,1,1.47-11.19c1.66-6.22,5.55-8.27,11.83-8.64a16.75,16.75,0,0,1,6.66,1c4.1,1.45,5.67,4.7,6.46,8.53A39.52,39.52,0,0,1,241.73,551Z"/><path class="cls-2" d="M65.45,551H57.54c-.28-1.77-.53-3.52-.85-5.26-.52-2.81-2.91-3.45-4.95-3.35a4,4,0,0,0-3.94,3.74c-.42,2.55-.64,5.14-.88,7.72a32.16,32.16,0,0,0-.27,5.27,109.08,109.08,0,0,0,1.17,11c.76,4.35,5,4.4,7.58,2.72a3.36,3.36,0,0,0,1.25-2,57.43,57.43,0,0,0,.88-6.12c.1-1.07.32-1.66,1.56-1.6,2.11.08,4.22,0,6.51,0,.13,5.34-.26,10.49-4.79,14a12.18,12.18,0,0,1-5.8,2.26c-3.58.46-7.24.23-10.37-1.91a12.08,12.08,0,0,1-5.21-9.16,95.33,95.33,0,0,1-.81-10.91,59.91,59.91,0,0,1,1.16-11.26c1.07-5.14,4.19-8.46,9.75-9.29,3.91-.6,7.63-.32,11,1.78,2.78,1.71,3.87,4.53,4.44,7.55A46.38,46.38,0,0,1,65.45,551Z"/><path class="cls-2" d="M181.76,543.75v10.43h14v6.3h-14v18.13h-8v-41H196.6v6.16Z"/><path class="cls-2" d="M137.39,543.8h-9.18v-6.2h26.32v6.17h-9v34.8h-8.11Z"/><path class="cls-2" d="M290.35,578.62h-8.11V543.87h-8.83v-6.29h26v6.18h-9.09Z"/><path class="cls-2" d="M159,578.57v-41h7.94v41Z"/><path class="cls-2" d="M209,578.65H201.2V537.57H209Z"/></g><g id="brc-2" data-name="brc"><path class="cls-2" d="M39.48,398.37V280.56H41c16.56,0,33.13-.14,49.68.06,7.9.1,15.67,1.29,22.81,5.11a24.16,24.16,0,0,1,12.59,16,28.33,28.33,0,0,1-4.26,23.61c-3.51,5.18-8.51,8.32-14.38,10.19l-1.61.49c1.82.47,3.3.85,4.76,1.25,9.6,2.58,16.08,8.5,19.27,18,1.62,4.81,1.68,9.73,1.19,14.74A30.17,30.17,0,0,1,125.26,385a27.06,27.06,0,0,1-8,7.08c-5.23,3.19-11,4.72-17,5.62a60.29,60.29,0,0,1-8.81.6c-16.7.06-33.41,0-50.11,0Zm10.94-9.22h1.87q19.44,0,38.87,0c1.47,0,2.94-.22,4.41-.27a33.16,33.16,0,0,0,11.76-2.63,19.77,19.77,0,0,0,11.61-11.82,26.7,26.7,0,0,0,1.39-12.08,29.49,29.49,0,0,0-1.07-5.51c-1.71-5.46-5.55-9-10.57-11.51-5.59-2.73-11.63-3.55-17.71-3.64-13-.18-26.1-.06-39.16-.05-.46,0-.92,0-1.4.06Zm0-99.38v42.64h1.68q18.93,0,37.87,0a35.72,35.72,0,0,0,13.3-2.32c3.83-1.53,7.24-3.67,9.55-7.2a20.6,20.6,0,0,0,2.9-14.92c-1.21-8-5.45-13.51-13.22-16.2A39.18,39.18,0,0,0,90,289.82c-12.67-.13-25.34-.05-38-.05Z"/><path class="cls-2" d="M216.09,341.51c2.13.58,3.93,1,5.71,1.55,7.45,2.26,11.74,7.49,13.75,14.79a50.54,50.54,0,0,1,1.78,12.3c.08,3.76.24,7.52.58,11.26.49,5.59,1.32,11.12,4,16.17.11.2.19.4.36.79-3.85,0-7.53,0-11.21,0a1.22,1.22,0,0,1-.89-.68,40.87,40.87,0,0,1-1.75-6.64c-.49-4-.57-8.14-.94-12.2-.41-4.42-.73-8.87-1.48-13.24-.94-5.51-2.56-10.85-6.84-14.84a15.13,15.13,0,0,0-10-4.45C196,346,182.73,346,169.5,346c-2.87,0-5.75,0-8.78,0v52.35H149.85V280.62c.42,0,.88-.06,1.34-.06,17.95,0,35.91-.15,53.86.06,8.09.1,15.9,1.85,22.73,6.57A25.14,25.14,0,0,1,238.71,304a40.22,40.22,0,0,1,.83,8.59c-.36,9-3.34,16.92-10.39,22.88a29.51,29.51,0,0,1-11.72,5.58C217.08,341.15,216.74,341.29,216.09,341.51Zm-55.32-51.74v47h1.78c13.57,0,27.15,0,40.73,0a28.86,28.86,0,0,0,9.18-1.46C222.3,332,227.86,325,228.64,315a25.6,25.6,0,0,0-1.75-11.68,19.28,19.28,0,0,0-10.31-10.92,36.11,36.11,0,0,0-14.65-2.63H160.77Z"/><path class="cls-2" d="M357.59,316c-3.4,0-6.66,0-9.92,0a1.53,1.53,0,0,1-1.14-.88,36.37,36.37,0,0,0-7.11-14.56,34.06,34.06,0,0,0-13.76-10.16,41.81,41.81,0,0,0-19.92-2.82,40,40,0,0,0-21.09,7.53,43.25,43.25,0,0,0-11.58,13.26,55.27,55.27,0,0,0-6.58,19.62,77.14,77.14,0,0,0-.87,14.79c.43,9.66,2.4,19,7.21,27.59a42.47,42.47,0,0,0,12.28,13.95,38.76,38.76,0,0,0,18.24,6.88,51.1,51.1,0,0,0,8.37.54A35.93,35.93,0,0,0,330,386.21c7.6-4.92,12.56-11.84,15.61-20.26a45.72,45.72,0,0,0,2.63-11.06c0-.42.58-1.11.9-1.12,3.3-.08,6.6,0,10.2,0-.48,2.78-.79,5.38-1.38,7.93a58.44,58.44,0,0,1-5.16,14.25,54,54,0,0,1-6.68,9.77,42.37,42.37,0,0,1-12.86,10.05,40,40,0,0,1-13.47,4.33,75,75,0,0,1-12.05.84c-11.16-.39-21.52-3.52-30.52-10.32-9.59-7.25-15.64-17-19.18-28.38a62.25,62.25,0,0,1-2.88-14.49c-.2-3.13-.62-6.26-.53-9.38.27-9.87,1.95-19.47,6.05-28.54a57.85,57.85,0,0,1,9.62-14.88c7.06-7.9,15.86-12.69,26-15.22a58.31,58.31,0,0,1,18.27-1.35,51.23,51.23,0,0,1,18.3,4.77,45,45,0,0,1,13.6,9.49,39.16,39.16,0,0,1,10.63,20.78C357.28,314.21,357.43,315,357.59,316Z"/></g><path class="cls-3" d="M38.8,424.72H57a14.94,14.94,0,0,1,6.66,1.33A12.11,12.11,0,0,1,68,429.54a13.61,13.61,0,0,1,2.38,4.93,22.45,22.45,0,0,1,.72,5.65,18.21,18.21,0,0,1-1.19,6.95,12.5,12.5,0,0,1-3.31,4.79,13.94,13.94,0,0,1-5.15,2.81,22.63,22.63,0,0,1-6.69.93H49.17v20.52H38.8ZM49.17,448h4.61a6.86,6.86,0,0,0,5-1.87q1.91-1.87,1.9-5.83A9.17,9.17,0,0,0,59,434.36q-1.66-2-5.55-2H49.17Z"/><path class="cls-3" d="M81.57,424.72H94.39L108,476.12H97.2l-2.38-10.87H81.14l-2.37,10.87H68Zm1.37,32H93l-5-23.12h-.14Z"/><path class="cls-3" d="M132.84,442.07c0-3.75-.45-6.47-1.33-8.17s-2.51-2.56-4.86-2.56a4.89,4.89,0,0,0-3.21,1,7,7,0,0,0-2,3.39,29.38,29.38,0,0,0-1,6.12q-.28,3.78-.28,9.25a91.19,91.19,0,0,0,.39,9.43,20.85,20.85,0,0,0,1.23,5.58,5.13,5.13,0,0,0,2.08,2.67,6.11,6.11,0,0,0,2.92.68,7,7,0,0,0,2.56-.47,4.32,4.32,0,0,0,2.05-1.87,12.49,12.49,0,0,0,1.37-4,36.68,36.68,0,0,0,.5-6.73h10.37a46.69,46.69,0,0,1-.65,7.92,18.43,18.43,0,0,1-2.41,6.59,12.48,12.48,0,0,1-5,4.5,18.19,18.19,0,0,1-8.32,1.65c-3.88,0-7-.66-9.28-2a13.28,13.28,0,0,1-5.3-5.51,23.91,23.91,0,0,1-2.37-8.46,107.47,107.47,0,0,1,0-21.52,23.91,23.91,0,0,1,2.37-8.46,13.28,13.28,0,0,1,5.3-5.51c2.3-1.32,5.4-2,9.28-2q5.55,0,8.75,1.8a12.23,12.23,0,0,1,4.79,4.57,15.71,15.71,0,0,1,2,6,49.93,49.93,0,0,1,.4,6Z"/><path class="cls-3" d="M159.19,424.72v20.59h.14l13.11-20.59h11.23l-14,22,15.55,29.37H173.59L163,455l-3.81,5.83v15.26H148.82v-51.4Z"/><path class="cls-3" d="M196.77,424.72h12.82l13.61,51.4H212.4L210,465.25H196.34L194,476.12h-10.8Zm1.37,32h10.08l-5-23.12h-.14Z"/><path class="cls-3" d="M248.9,440a14.8,14.8,0,0,0-.32-2.92,9.66,9.66,0,0,0-1.05-2.8,6.72,6.72,0,0,0-1.83-2.09,4.44,4.44,0,0,0-2.7-.83q-3.75,0-5.4,4.18t-1.66,13.82q0,4.68.29,8.39a32.34,32.34,0,0,0,1,6.33,9.32,9.32,0,0,0,2.16,4,5,5,0,0,0,3.64,1.4,5.11,5.11,0,0,0,2.05-.5,6.84,6.84,0,0,0,2.09-1.52,8.09,8.09,0,0,0,1.62-2.55,9.43,9.43,0,0,0,.65-3.64V456h-6.84V448.4h16.77v27.72h-7.63v-4.75h-.14a11.71,11.71,0,0,1-4.5,4.39,13.56,13.56,0,0,1-6.3,1.37,15.13,15.13,0,0,1-7.74-1.76,11.93,11.93,0,0,1-4.68-5.22,26,26,0,0,1-2.27-8.53,104.36,104.36,0,0,1-.58-11.78,69,69,0,0,1,.83-11.37,22.7,22.7,0,0,1,2.84-8.17,13,13,0,0,1,5.33-4.94,18.5,18.5,0,0,1,8.28-1.65q8.49,0,12.24,4.21T258.84,440Z"/><path class="cls-3" d="M265.89,476.12v-51.4h10.37v51.4Z"/><path class="cls-3" d="M295.2,424.72l12.52,35.2h.15v-35.2h9.5v51.4H305.56l-12.67-36h-.14v36h-9.51v-51.4Z"/><path class="cls-3" d="M346.67,440a14.08,14.08,0,0,0-.32-2.92,9.65,9.65,0,0,0-1-2.8,6.75,6.75,0,0,0-1.84-2.09,4.4,4.4,0,0,0-2.7-.83q-3.75,0-5.4,4.18t-1.66,13.82q0,4.68.29,8.39a31.55,31.55,0,0,0,1.05,6.33,9.11,9.11,0,0,0,2.16,4,4.91,4.91,0,0,0,3.63,1.4,5.07,5.07,0,0,0,2.05-.5,6.72,6.72,0,0,0,2.09-1.52,8.09,8.09,0,0,0,1.62-2.55,9.24,9.24,0,0,0,.65-3.64V456h-6.84V448.4h16.78v27.72h-7.64v-4.75h-.14a11.71,11.71,0,0,1-4.5,4.39,13.5,13.5,0,0,1-6.3,1.37,15.13,15.13,0,0,1-7.74-1.76,12.06,12.06,0,0,1-4.68-5.22,26.28,26.28,0,0,1-2.27-8.53,107,107,0,0,1-.57-11.78,69.13,69.13,0,0,1,.82-11.37A22.7,22.7,0,0,1,327,430.3a13,13,0,0,1,5.33-4.94,18.47,18.47,0,0,1,8.28-1.65q8.49,0,12.24,4.21T356.61,440Z"/><path id="check" class="cls-2" d="M345.22,30.74c-8.3,5.92-16.64,11.78-24.89,17.78Q308.57,57.06,297,65.83c-5,3.77-9.79,7.72-14.59,11.68-3.66,3-7.22,6.16-10.75,9.31-4.27,3.8-8.52,7.61-12.67,11.53-5.5,5.18-11,10.37-16.3,15.75-4.41,4.47-8.66,9.12-12.74,13.89-5.41,6.32-10.72,12.72-15.83,19.28q-8.67,11.14-16.89,22.63c-5.35,7.49-10.59,15.08-15.57,22.82-5.82,9-11.38,18.24-16.91,27.46-4.23,7-8.31,14.19-12.33,21.36-3.33,6-6.49,12-9.71,18-1,1.78-1.88,3.59-2.83,5.37-.19.35-.45.67-.79,1.17-1.39-2.95-2.64-5.72-4-8.43-2.79-5.6-5.46-11.27-8.51-16.73-3.77-6.76-7.77-13.41-11.87-20-3.21-5.14-6.64-10.15-10.14-15.09-4-5.57-8-11-12.16-16.46-3.32-4.4-6.73-8.74-10.18-13-2.55-3.17-5.24-6.23-7.86-9.35-3-3.61-6.09-7.24-9.14-10.85-1.81-2.14-3.65-4.24-5.48-6.36l-7.77-9a24.41,24.41,0,0,1,2.82.4c7.25,2.07,14.57,3.94,21.71,6.33,6,2,11.75,4.44,17.5,6.95a129,129,0,0,1,21.59,11.91,100.11,100.11,0,0,1,15.31,13.39c.75.78,1.37,1.67,2.07,2.54,2.22-2.16,4.44-4.31,6.65-6.49.37-.36.62-.83,1-1.2,8.14-8.15,16.25-16.32,24.44-24.43,3.77-3.73,7.65-7.34,11.53-11,3.09-2.88,6.21-5.75,9.4-8.53,4.33-3.75,8.66-7.5,13.12-11.09,7.2-5.8,14.34-11.69,21.81-17.13C230.35,95.61,240,89,249.77,82.54c7.16-4.75,14.54-9.16,21.91-13.58,5.44-3.26,11-6.37,16.54-9.41q12.75-7,25.63-13.72c6.42-3.36,12.92-6.6,19.42-9.82,3.87-1.91,7.82-3.67,11.74-5.5Z"/></g></g></g></svg>